<?xml version="1.0" encoding="utf-8"?>
<!-- Generator: Adobe Illustrator 19.2.1, SVG Export Plug-In . SVG Version: 6.00 Build 0)  -->
<svg version="1.1" id="layer" xmlns="http://www.w3.org/2000/svg" xmlns:xlink="http://www.w3.org/1999/xlink" x="0px" y="0px"
	 viewBox="0 0 652 652" style="enable-background:new 0 0 652 652;" xml:space="preserve">
<path d="M106.2,306.6c-1.7,0.6-2.7,2.5-2.1,4.3c0.6,1.7,2.5,2.7,4.3,2.1c1.7-0.6,2.6-2.4,2.1-4.2c-0.6-1.8-2.4-2.7-4.2-2.2
	C106.3,306.6,106.3,306.6,106.2,306.6"/>
<path d="M103.1,247.4c-42.6,0-77.1,34.5-77.1,77.1s34.5,77.1,77.1,77.1s77.1-34.5,77.1-77.1S145.7,247.4,103.1,247.4
	C103.1,247.4,103.1,247.4,103.1,247.4 M147.8,277.9c-0.2,0.5-0.4,1-0.8,1.4c-1.4,1.6-16.7,18.8-22.4,24.5c2.5,6.4,2.5,17.3,1.6,27.9
	c-1.2,15-3.2,21-11.3,25.5c-8.1,4.6-30.5,5.2-41.6,2.5c-11.2-2.7-12.5-13.9-13.6-14.4c-4.4-1.9-3.8-8.7-3.8-8.7
	c3.1-0.2,6.1,3.8,6.1,3.8c1.4-1.6,3-2.9,4.9-3.8c1.7,6-1.9,8-1.5,8.7c0.9,2.2,5.6,7.5,13.1,3.8c7.5-3.8,7.8-14.2,8.3-27.1
	c0.5-12.9,3.8-23.1,14.8-25.5c5.8-1.4,11.9-0.9,17.4,1.6c7.5-5.6,24.9-18,26.5-19c0.5-0.4,1-0.7,1.6-1h0.8L147.8,277.9z"/>
<path d="M97.3,334.4c-2.4,3.5-3.2,6.7-4.7,10.4c-1.3,3-3.6,4.4-5.2,6.9c-1.3,2.1,3.2,2.9,4.4,2.9c3.4,0,6.7-1.5,8.9-4.2
	c2.6-3.6,2.9-7.1,4.8-10.9c1-2,4-5.9,4.2-7.8C109.9,328.3,100.9,329.3,97.3,334.4 M218.1,298.9h18.1c15.3,0,25.1,10.6,25.1,25.6
	s-9.7,25.6-25.1,25.6h-18.1V298.9z M224.6,305V344h11.5c11.5,0,18.4-8.2,18.4-19.5c0-11.2-7-19.5-18.4-19.5H224.6z M298.2,298.1
	c14.3-0.2,26.1,11.2,26.3,25.4c0,0.3,0,0.6,0,1c0.4,14.6-11.1,26.7-25.7,27.1c-14.6,0.4-26.7-11.1-27.1-25.7c0-0.5,0-0.9,0-1.4
	c-0.3-14.3,11-26.1,25.3-26.4C297.4,298.1,297.8,298.1,298.2,298.1 M298.2,344.5c10.8,0.1,19.6-8.5,19.7-19.3c0-0.2,0-0.5,0-0.7
	c0-10.9-8.8-19.7-19.7-19.7s-19.7,8.8-19.7,19.7c-0.3,10.7,8.2,19.7,18.9,20C297.8,344.5,298,344.5,298.2,344.5 M374.8,347.4
	c-4.1,2.4-8.8,3.6-13.5,3.5c-14.3,0.3-26.1-11-26.4-25.3c0-0.4,0-0.7,0-1.1c-0.3-14.3,11-26.1,25.3-26.4c0.4,0,0.7,0,1.1,0
	c4.7,0,9.4,1.2,13.5,3.5v7.7c-3.8-3.1-8.6-4.8-13.5-4.7c-10.8-0.1-19.6,8.6-19.6,19.4c0,0.2,0,0.4,0,0.6c-0.3,10.7,8.1,19.7,18.9,20
	c0.3,0,0.5,0,0.8,0c4.9,0.1,9.7-1.6,13.5-4.7V347.4z M390.5,298.9h6.5V324l19.2-25.1h7.8l-15.8,21l16.6,30.3H417l-13.4-24.9
	l-6.6,8.2v16.7h-6.5V298.9z M450.8,327.4l-17-28.6h7.4L454,321l12.9-22.1h7.5l-17.1,28.7v22.6h-6.5
	C450.8,350.1,450.8,327.4,450.8,327.4z M509.3,335.8h-20.7l-5.2,14.3h-7.3l19.2-51.3h7.3l19.3,51.3h-7.3L509.3,335.8z M490.8,329.6
	h16.4l-8.2-22.1L490.8,329.6z M534.3,298.9h15.2c9.6,0,16.1,5.4,16.1,14.4c0.2,6.4-4.3,12-10.6,13.1c6.1,2.9,11.4,11.6,13.3,23.7
	h-6.7c-2.3-12.7-8.7-21.4-15.5-21.4h-5.4v21.4h-6.5V298.9z M549.5,305h-8.7v17.5h8.7c5.4,0,9.4-3.1,9.4-8.7S554.8,305,549.5,305
	 M582.9,298.9H601c15.3,0,25,10.6,25,25.6s-9.7,25.6-25,25.6h-18.1V298.9z M589.3,305V344h11.5c11.5,0,18.4-8.2,18.4-19.5
	c0-11.2-6.9-19.5-18.4-19.5H589.3z"/>
</svg>
